<svg width="25" height="25" viewBox="0 0 25 25" fill="none" xmlns="http://www.w3.org/2000/svg">
<mask id="mask0_194_36496" style="mask-type:luminance" maskUnits="userSpaceOnUse" x="0" y="0" width="25" height="25">
<path d="M24.582 0.558105H0.582031V24.5581H24.582V0.558105Z" fill="white"/>
</mask>
<g mask="url(#mask0_194_36496)">
<path d="M6.23805 20.8011C5.98905 20.7101 5.71926 20.6481 5.49096 20.5151C4.91406 20.1701 4.60286 19.6391 4.59456 18.9711C4.57786 17.6971 4.57786 16.4221 4.59456 15.1481C4.60286 14.1441 5.42456 13.3261 6.42896 13.3181C7.69486 13.3051 8.96486 13.3051 10.2349 13.3181C11.2476 13.3261 12.0611 14.1481 12.0694 15.1651C12.0819 16.4221 12.0777 17.6801 12.0694 18.9381C12.0611 19.8631 11.4053 20.6141 10.4964 20.7721C10.4715 20.7761 10.4466 20.7891 10.4259 20.8011L6.23805 20.8011ZM8.34646 14.5841H6.54106C6.10936 14.5841 5.86456 14.8291 5.86036 15.2601V18.8421C5.86036 19.2861 6.10526 19.5271 6.54516 19.5311H10.127C10.5587 19.5311 10.8035 19.2861 10.8077 18.8551V15.2731C10.8077 14.8291 10.5628 14.5881 10.1229 14.5841L8.34646 14.5841Z" fill="#B4BAC8"/>
<path d="M6.23805 20.8011C5.98905 20.7101 5.71926 20.6481 5.49096 20.5151C4.91406 20.1701 4.60286 19.6391 4.59456 18.9711C4.57786 17.6971 4.57786 16.4221 4.59456 15.1481C4.60286 14.1441 5.42456 13.3261 6.42896 13.3181C7.69486 13.3051 8.96486 13.3051 10.2349 13.3181C11.2476 13.3261 12.0611 14.1481 12.0694 15.1651C12.0819 16.4221 12.0777 17.6801 12.0694 18.9381C12.0611 19.8631 11.4053 20.6141 10.4964 20.7721C10.4715 20.7761 10.4466 20.7891 10.4259 20.8011L6.23805 20.8011ZM8.34646 14.5841H6.54106C6.10936 14.5841 5.86456 14.8291 5.86036 15.2601V18.8421C5.86036 19.2861 6.10526 19.5271 6.54516 19.5311H10.127C10.5587 19.5311 10.8035 19.2861 10.8077 18.8551V15.2731C10.8077 14.8291 10.5628 14.5881 10.1229 14.5841L8.34646 14.5841Z" stroke="#B4BAC8" stroke-width="0.4"/>
<path d="M20.8274 10.3672C20.7568 10.6992 20.6572 11.0192 20.4414 11.2932C20.072 11.7661 19.5864 12.0361 18.9846 12.0441C17.7146 12.0561 16.4487 12.0601 15.1787 12.0441C14.1868 12.0311 13.3608 11.2051 13.3484 10.2181C13.3318 8.94314 13.3318 7.66914 13.3484 6.39515C13.3608 5.40714 14.1909 4.58115 15.1787 4.56916C16.4446 4.55216 17.7146 4.55616 18.9846 4.56916C19.8811 4.57716 20.6406 5.25416 20.7983 6.13816C20.8066 6.17516 20.8191 6.20814 20.8274 6.24215V10.3672ZM17.0796 10.7782H18.8559C19.3 10.7782 19.5574 10.5212 19.5574 10.0812V6.52816C19.5574 6.08816 19.3 5.83115 18.8559 5.83115H15.3198C14.8674 5.83115 14.6101 6.08417 14.6101 6.53616V10.0722C14.6101 10.5252 14.8674 10.7782 15.3198 10.7782H17.0796Z" fill="#B4BAC8"/>
<path d="M20.8274 10.3672C20.7568 10.6992 20.6572 11.0192 20.4414 11.2932C20.072 11.7661 19.5864 12.0361 18.9846 12.0441C17.7146 12.0561 16.4487 12.0601 15.1787 12.0441C14.1868 12.0311 13.3608 11.2051 13.3484 10.2181C13.3318 8.94314 13.3318 7.66914 13.3484 6.39515C13.3608 5.40714 14.1909 4.58115 15.1787 4.56916C16.4446 4.55216 17.7146 4.55616 18.9846 4.56916C19.8811 4.57716 20.6406 5.25416 20.7983 6.13816C20.8066 6.17516 20.8191 6.20814 20.8274 6.24215V10.3672ZM17.0796 10.7782H18.8559C19.3 10.7782 19.5574 10.5212 19.5574 10.0812V6.52816C19.5574 6.08816 19.3 5.83115 18.8559 5.83115H15.3198C14.8674 5.83115 14.6101 6.08417 14.6101 6.53616V10.0722C14.6101 10.5252 14.8674 10.7782 15.3198 10.7782H17.0796Z" stroke="#B4BAC8" stroke-width="0.4"/>
<path d="M15.0256 20.8011C14.6894 20.7311 14.3657 20.6271 14.0876 20.4071C13.6228 20.0371 13.3571 19.5561 13.3488 18.9631C13.3364 17.6971 13.3322 16.4271 13.3488 15.1611C13.3613 14.1651 14.1872 13.3351 15.1833 13.3221C16.4492 13.3061 17.7192 13.3101 18.9851 13.3221C19.8815 13.3301 20.6369 14.0071 20.7946 14.8911C20.8029 14.9281 20.8154 14.9621 20.8237 14.9951V19.1161C20.8154 19.1491 20.7988 19.1871 20.7946 19.2201C20.6411 19.9711 20.2011 20.4651 19.479 20.7101C19.371 20.7471 19.259 20.7681 19.1469 20.7971C17.7731 20.8011 16.3994 20.8011 15.0256 20.8011ZM19.5578 17.0621V15.3021C19.5578 14.8371 19.3046 14.5841 18.8439 14.5841H15.3244C14.8637 14.5841 14.6106 14.8371 14.6106 15.3021V18.8211C14.6106 19.2741 14.8637 19.5311 15.3161 19.5311H18.8523C19.3046 19.5311 19.5578 19.2741 19.5578 18.8211V17.0621Z" fill="#B4BAC8"/>
<path d="M15.0256 20.8011C14.6894 20.7311 14.3657 20.6271 14.0876 20.4071C13.6228 20.0371 13.3571 19.5561 13.3488 18.9631C13.3364 17.6971 13.3322 16.4271 13.3488 15.1611C13.3613 14.1651 14.1872 13.3351 15.1833 13.3221C16.4492 13.3061 17.7192 13.3101 18.9851 13.3221C19.8815 13.3301 20.6369 14.0071 20.7946 14.8911C20.8029 14.9281 20.8154 14.9621 20.8237 14.9951V19.1161C20.8154 19.1491 20.7988 19.1871 20.7946 19.2201C20.6411 19.9711 20.2011 20.4651 19.479 20.7101C19.371 20.7471 19.259 20.7681 19.1469 20.7971C17.7731 20.8011 16.3994 20.8011 15.0256 20.8011ZM19.5578 17.0621V15.3021C19.5578 14.8371 19.3046 14.5841 18.8439 14.5841H15.3244C14.8637 14.5841 14.6106 14.8371 14.6106 15.3021V18.8211C14.6106 19.2741 14.8637 19.5311 15.3161 19.5311H18.8523C19.3046 19.5311 19.5578 19.2741 19.5578 18.8211V17.0621Z" stroke="#B4BAC8" stroke-width="0.4"/>
<path d="M12.0749 8.31718V10.0932C12.0749 11.2302 11.2656 12.0442 10.1326 12.0482H6.53419C5.40939 12.0482 4.5959 11.2352 4.5918 10.1102V6.51118C4.5918 5.37818 5.4053 4.56919 6.5425 4.56519H10.1243C11.2615 4.56519 12.0708 5.37818 12.0708 6.51118C12.0749 7.11317 12.0749 7.71517 12.0749 8.31718ZM8.3354 10.7782H10.1118C10.5642 10.7782 10.8091 10.5372 10.8091 10.0852V6.53218C10.8091 6.06718 10.5725 5.82718 10.1077 5.82718H6.5591C6.1067 5.82718 5.8618 6.0672 5.8618 6.5202V10.0852C5.8618 10.5292 6.1025 10.7742 6.5466 10.7742C7.1401 10.7782 7.7378 10.7782 8.3354 10.7782Z" fill="#B4BAC8"/>
<path d="M12.0749 8.31718V10.0932C12.0749 11.2302 11.2656 12.0442 10.1326 12.0482H6.53419C5.40939 12.0482 4.5959 11.2352 4.5918 10.1102V6.51118C4.5918 5.37818 5.4053 4.56919 6.5425 4.56519H10.1243C11.2615 4.56519 12.0708 5.37818 12.0708 6.51118C12.0749 7.11317 12.0749 7.71517 12.0749 8.31718ZM8.3354 10.7782H10.1118C10.5642 10.7782 10.8091 10.5372 10.8091 10.0852V6.53218C10.8091 6.06718 10.5725 5.82718 10.1077 5.82718H6.5591C6.1067 5.82718 5.8618 6.0672 5.8618 6.5202V10.0852C5.8618 10.5292 6.1025 10.7742 6.5466 10.7742C7.1401 10.7782 7.7378 10.7782 8.3354 10.7782Z" stroke="#B4BAC8" stroke-width="0.4"/>
</g>
</svg>
